ffmpeg started on 2025-04-30 at 18:53:38
Report written to "D:\Convert\FFMetrics\reports\psnr_report-6.txt"
Log level: 32
Command line:
ffmpeg -hide_banner -nostdin -i "G:\\\xc0\xed\xe8\xec\xe5\\\xce\xed\xe3\xee\xe8\xed\xe3\xe8\\!_35_\xcb\xe5\xf2\xee_2024\\JamClub\\\xcc\xee\xff \xf1\xfd\xec\xef\xe0\xe9 - \xef\xe0\xf0\xe5\xed\xfc\\JamClub_Senpai_wa_Otokonoko_12_1080p_HEVC.mkv" -i "G:\\\xc0\xed\xe8\xec\xe5\\\xce\xed\xe3\xee\xe8\xed\xe3\xe8\\!_35_\xcb\xe5\xf2\xee_2024\\JamClub\\\xcc\xee\xff \xf1\xfd\xec\xef\xe0\xe9 - \xef\xe0\xf0\xe5\xed\xfc\\JamClub_Senpai_wa_Otokonoko_12_1080p.mp4" -lavfi "[0:v]settb=AVTB,setpts=PTS-STARTPTS,format=pix_fmts=yuv420p10,fps=24000/1001,scale=1920:1080:flags=bicubic[main];[1:v]settb=AVTB,setpts=PTS-STARTPTS,format=pix_fmts=yuv420p,fps=24000/1001,scale=1920:1080:flags=bicubic[ref];[main][ref]psnr=eof_action=endall:stats_file='D\\:/Convert/FFMetrics/logs/psnr_logfile-6.txt'" -f null -
Input #0, matroska,webm, from 'G:\Аниме\Онгоинги\!_35_Лето_2024\JamClub\Моя сэмпай - парень\JamClub_Senpai_wa_Otokonoko_12_1080p_HEVC.mkv':
  Metadata:
    COMPATIBLE_BRANDS: isomiso2avc1mp41
    MAJOR_BRAND     : isom
    MINOR_VERSION   : 512
    ENCODER         : Lavf61.7.100
  Duration: 00:23:13.37, start: -0.001000, bitrate: 1245 kb/s
  Stream #0:0: Video: hevc (Main 10), yuv420p10le(tv, bt709, progressive), 1920x1080 [SAR 1:1 DAR 16:9], 23.98 fps, 23.98 tbr, 1k tbn (default)
      Metadata:
        HANDLER_NAME    : VideoHandler
        VENDOR_ID       : [0][0][0][0]
        ENCODER         : Lavc61.19.100 libx265
        BPS             : 1048437
        DURATION        : 00:23:12.223708333
        NUMBER_OF_FRAMES: 33380
        NUMBER_OF_BYTES : 182457312
        _STATISTICS_WRITING_APP: mkvpropedit v66.0.0 ('Josie') 64-bit
        _STATISTICS_WRITING_DATE_UTC: 2025-04-29 17:25:46
        _STATISTICS_TAGS: BPS DURATION NUMBER_OF_FRAMES NUMBER_OF_BYTES
  Stream #0:1(eng): Audio: aac (LC), 48000 Hz, stereo, fltp (default)
      Metadata:
        HANDLER_NAME    : SoundHandler
        VENDOR_ID       : [0][0][0][0]
        ENCODER         : Lavc61.19.100 aac
        BPS             : 193845
        DURATION        : 00:23:13.325000000
        NUMBER_OF_FRAMES: 65313
        NUMBER_OF_BYTES : 33761264
        _STATISTICS_WRITING_APP: mkvpropedit v66.0.0 ('Josie') 64-bit
        _STATISTICS_WRITING_DATE_UTC: 2025-04-29 17:25:46
        _STATISTICS_TAGS: BPS DURATION NUMBER_OF_FRAMES NUMBER_OF_BYTES
Input #1, mov,mp4,m4a,3gp,3g2,mj2, from 'G:\Аниме\Онгоинги\!_35_Лето_2024\JamClub\Моя сэмпай - парень\JamClub_Senpai_wa_Otokonoko_12_1080p.mp4':
  Metadata:
    major_brand     : isom
    minor_version   : 512
    compatible_brands: isomiso2avc1mp41
    encoder         : Lavf60.16.100
  Duration: 00:23:13.35, start: 0.000000, bitrate: 3951 kb/s
  Stream #1:0[0x1](und): Video: h264 (High) (avc1 / 0x31637661), yuv420p(progressive), 1920x1080 [SAR 1:1 DAR 16:9], 3755 kb/s, 23.98 fps, 23.98 tbr, 90k tbn (default)
      Metadata:
        handler_name    : VideoHandler
        vendor_id       : [0][0][0][0]
  Stream #1:1[0x2](eng): Audio: aac (LC) (mp4a / 0x6134706D), 48000 Hz, stereo, fltp, 191 kb/s (default)
      Metadata:
        handler_name    : SoundHandler
        vendor_id       : [0][0][0][0]
Stream mapping:
  Stream #0:0 (hevc) -> settb:default
  Stream #1:0 (h264) -> settb:default
  psnr:default -> Stream #0:0 (wrapped_avframe)
  Stream #0:1 -> #0:1 (aac (native) -> pcm_s16le (native))
Output #0, null, to 'pipe:':
  Metadata:
    COMPATIBLE_BRANDS: isomiso2avc1mp41
    MAJOR_BRAND     : isom
    MINOR_VERSION   : 512
    encoder         : Lavf61.7.100
  Stream #0:0: Video: wrapped_avframe, yuv420p10le(tv, bt709, progressive), 1920x1080 [SAR 1:1 DAR 16:9], q=2-31, 200 kb/s, 23.98 fps, 23.98 tbn
      Metadata:
        encoder         : Lavc61.19.100 wrapped_avframe
  Stream #0:1(eng): Audio: pcm_s16le, 48000 Hz, stereo, s16, 1536 kb/s (default)
      Metadata:
        HANDLER_NAME    : SoundHandler
        VENDOR_ID       : [0][0][0][0]
        _STATISTICS_TAGS: BPS DURATION NUMBER_OF_FRAMES NUMBER_OF_BYTES
        BPS             : 193845
        DURATION        : 00:23:13.325000000
        NUMBER_OF_FRAMES: 65313
        NUMBER_OF_BYTES : 33761264
        _STATISTICS_WRITING_APP: mkvpropedit v66.0.0 ('Josie') 64-bit
        _STATISTICS_WRITING_DATE_UTC: 2025-04-29 17:25:46
        encoder         : Lavc61.19.100 pcm_s16le
frame=  115 fps=0.0 q=-0.0 size=N/A time=00:00:04.79 bitrate=N/A speed= 9.5x    frame=  279 fps=271 q=-0.0 size=N/A time=00:00:11.63 bitrate=N/A speed=11.3x    frame=  478 fps=310 q=-0.0 size=N/A time=00:00:19.93 bitrate=N/A speed=12.9x    frame=  739 fps=358 q=-0.0 size=N/A time=00:00:30.82 bitrate=N/A speed=14.9x    frame= 1008 fps=391 q=-0.0 size=N/A time=00:00:42.04 bitrate=N/A speed=16.3x    frame= 1259 fps=408 q=-0.0 size=N/A time=00:00:52.51 bitrate=N/A speed=  17x    frame= 1532 fps=424 q=-0.0 size=N/A time=00:01:03.89 bitrate=N/A speed=17.7x    frame= 1784 fps=433 q=-0.0 size=N/A time=00:01:14.40 bitrate=N/A speed=18.1x    frame= 2044 fps=441 q=-0.0 size=N/A time=00:01:25.25 bitrate=N/A speed=18.4x    frame= 2289 fps=444 q=-0.0 size=N/A time=00:01:35.47 bitrate=N/A speed=18.5x    frame= 2513 fps=443 q=-0.0 size=N/A time=00:01:44.81 bitrate=N/A speed=18.5x    frame= 2764 fps=447 q=-0.0 size=N/A time=00:01:55.28 bitrate=N/A speed=18.7x    frame= 3025 fps=451 q=-0.0 size=N/A time=00:02:06.20 bitrate=N/A speed=18.8x    frame= 3277 fps=454 q=-0.0 size=N/A time=00:02:16.67 bitrate=N/A speed=  19x    frame= 3541 fps=458 q=-0.0 size=N/A time=00:02:27.68 bitrate=N/A speed=19.1x    frame= 3797 fps=461 q=-0.0 size=N/A time=00:02:38.36 bitrate=N/A speed=19.2x    frame= 4016 fps=458 q=-0.0 size=N/A time=00:02:47.50 bitrate=N/A speed=19.1x    frame= 4227 fps=456 q=-0.0 size=N/A time=00:02:56.30 bitrate=N/A speed=  19x    frame= 4409 fps=450 q=-0.0 size=N/A time=00:03:03.89 bitrate=N/A speed=18.8x    frame= 4633 fps=449 q=-0.0 size=N/A time=00:03:13.23 bitrate=N/A speed=18.7x    frame= 4849 fps=448 q=-0.0 size=N/A time=00:03:22.24 bitrate=N/A speed=18.7x    frame= 5097 fps=450 q=-0.0 size=N/A time=00:03:32.58 bitrate=N/A speed=18.8x    frame= 5320 fps=449 q=-0.0 size=N/A time=00:03:41.88 bitrate=N/A speed=18.7x    frame= 5563 fps=450 q=-0.0 size=N/A time=00:03:52.02 bitrate=N/A speed=18.8x    frame= 5796 fps=450 q=-0.0 size=N/A time=00:04:01.74 bitrate=N/A speed=18.7x    frame= 6054 fps=452 q=-0.0 size=N/A time=00:04:12.50 bitrate=N/A speed=18.8x    frame= 6291 fps=452 q=-0.0 size=N/A time=00:04:22.38 bitrate=N/A speed=18.9x    frame= 6529 fps=452 q=-0.0 size=N/A time=00:04:32.31 bitrate=N/A speed=18.9x    frame= 6788 fps=454 q=-0.0 size=N/A time=00:04:43.11 bitrate=N/A speed=18.9x    frame= 7031 fps=455 q=-0.0 size=N/A time=00:04:53.25 bitrate=N/A speed=  19x    frame= 7308 fps=457 q=-0.0 size=N/A time=00:05:04.80 bitrate=N/A speed=19.1x    frame= 7558 fps=458 q=-0.0 size=N/A time=00:05:15.23 bitrate=N/A speed=19.1x    frame= 7809 fps=459 q=-0.0 size=N/A time=00:05:25.70 bitrate=N/A speed=19.1x    frame= 7990 fps=456 q=-0.0 size=N/A time=00:05:33.24 bitrate=N/A speed=  19x    frame= 8165 fps=452 q=-0.0 size=N/A time=00:05:40.54 bitrate=N/A speed=18.9x    frame= 8338 fps=449 q=-0.0 size=N/A time=00:05:47.76 bitrate=N/A speed=18.7x    frame= 8540 fps=448 q=-0.0 size=N/A time=00:05:56.18 bitrate=N/A speed=18.7x    frame= 8724 fps=445 q=-0.0 size=N/A time=00:06:03.86 bitrate=N/A speed=18.6x    frame= 8911 fps=443 q=-0.0 size=N/A time=00:06:11.66 bitrate=N/A speed=18.5x    frame= 9088 fps=441 q=-0.0 size=N/A time=00:06:19.04 bitrate=N/A speed=18.4x    frame= 9325 fps=441 q=-0.0 size=N/A time=00:06:28.93 bitrate=N/A speed=18.4x    frame= 9568 fps=442 q=-0.0 size=N/A time=00:06:39.06 bitrate=N/A speed=18.4x    frame= 9818 fps=443 q=-0.0 size=N/A time=00:06:49.49 bitrate=N/A speed=18.5x    frame=10015 fps=442 q=-0.0 size=N/A time=00:06:57.70 bitrate=N/A speed=18.4x    frame=10207 fps=440 q=-0.0 size=N/A time=00:07:05.71 bitrate=N/A speed=18.3x    frame=10302 fps=435 q=-0.0 size=N/A time=00:07:09.67 bitrate=N/A speed=18.1x    frame=10475 fps=432 q=-0.0 size=N/A time=00:07:16.89 bitrate=N/A speed=  18x    frame=10721 fps=433 q=-0.0 size=N/A time=00:07:27.15 bitrate=N/A speed=18.1x    frame=10990 fps=435 q=-0.0 size=N/A time=00:07:38.37 bitrate=N/A speed=18.1x    frame=11246 fps=436 q=-0.0 size=N/A time=00:07:49.05 bitrate=N/A speed=18.2x    frame=11518 fps=438 q=-0.0 size=N/A time=00:08:00.39 bitrate=N/A speed=18.3x    frame=11778 fps=439 q=-0.0 size=N/A time=00:08:11.24 bitrate=N/A speed=18.3x    frame=12038 fps=441 q=-0.0 size=N/A time=00:08:22.08 bitrate=N/A speed=18.4x    frame=12281 fps=441 q=-0.0 size=N/A time=00:08:32.22 bitrate=N/A speed=18.4x    frame=12512 fps=441 q=-0.0 size=N/A time=00:08:41.85 bitrate=N/A speed=18.4x    frame=12778 fps=443 q=-0.0 size=N/A time=00:08:52.94 bitrate=N/A speed=18.5x    frame=13015 fps=443 q=-0.0 size=N/A time=00:09:02.83 bitrate=N/A speed=18.5x    frame=13222 fps=442 q=-0.0 size=N/A time=00:09:11.46 bitrate=N/A speed=18.4x    frame=13478 fps=443 q=-0.0 size=N/A time=00:09:22.14 bitrate=N/A speed=18.5x    frame=13752 fps=444 q=-0.0 size=N/A time=00:09:33.57 bitrate=N/A speed=18.5x    frame=13998 fps=445 q=-0.0 size=N/A time=00:09:43.83 bitrate=N/A speed=18.6x    frame=14248 fps=445 q=-0.0 size=N/A time=00:09:54.26 bitrate=N/A speed=18.6x    frame=14512 fps=447 q=-0.0 size=N/A time=00:10:05.27 bitrate=N/A speed=18.6x    frame=14776 fps=448 q=-0.0 size=N/A time=00:10:16.28 bitrate=N/A speed=18.7x    frame=15026 fps=448 q=-0.0 size=N/A time=00:10:26.70 bitrate=N/A speed=18.7x    frame=15290 fps=449 q=-0.0 size=N/A time=00:10:37.72 bitrate=N/A speed=18.7x    frame=15549 fps=450 q=-0.0 size=N/A time=00:10:48.52 bitrate=N/A speed=18.8x    frame=15819 fps=451 q=-0.0 size=N/A time=00:10:59.78 bitrate=N/A speed=18.8x    frame=16082 fps=452 q=-0.0 size=N/A time=00:11:10.75 bitrate=N/A speed=18.8x    frame=16352 fps=453 q=-0.0 size=N/A time=00:11:22.01 bitrate=N/A speed=18.9x    frame=16607 fps=453 q=-0.0 size=N/A time=00:11:32.69 bitrate=N/A speed=18.9x    frame=16882 fps=455 q=-0.0 size=N/A time=00:11:44.12 bitrate=N/A speed=  19x    frame=17157 fps=456 q=-0.0 size=N/A time=00:11:55.58 bitrate=N/A speed=  19x    frame=17416 fps=456 q=-0.0 size=N/A time=00:12:06.39 bitrate=N/A speed=  19x    frame=17657 fps=456 q=-0.0 size=N/A time=00:12:16.44 bitrate=N/A speed=  19x    frame=17904 fps=457 q=-0.0 size=N/A time=00:12:26.74 bitrate=N/A speed=  19x    frame=18155 fps=457 q=-0.0 size=N/A time=00:12:37.21 bitrate=N/A speed=19.1x    frame=18418 fps=458 q=-0.0 size=N/A time=00:12:48.18 bitrate=N/A speed=19.1x    frame=18671 fps=458 q=-0.0 size=N/A time=00:12:58.73 bitrate=N/A speed=19.1x    frame=18938 fps=459 q=-0.0 size=N/A time=00:13:09.87 bitrate=N/A speed=19.1x    frame=19207 fps=460 q=-0.0 size=N/A time=00:13:21.09 bitrate=N/A speed=19.2x    frame=19473 fps=460 q=-0.0 size=N/A time=00:13:32.18 bitrate=N/A speed=19.2x    frame=19747 fps=461 q=-0.0 size=N/A time=00:13:43.61 bitrate=N/A speed=19.2x    frame=20014 fps=462 q=-0.0 size=N/A time=00:13:54.75 bitrate=N/A speed=19.3x    frame=20275 fps=463 q=-0.0 size=N/A time=00:14:05.63 bitrate=N/A speed=19.3x    frame=20536 fps=463 q=-0.0 size=N/A time=00:14:16.52 bitrate=N/A speed=19.3x    frame=20788 fps=463 q=-0.0 size=N/A time=00:14:27.03 bitrate=N/A speed=19.3x    frame=21034 fps=463 q=-0.0 size=N/A time=00:14:37.29 bitrate=N/A speed=19.3x    frame=21273 fps=463 q=-0.0 size=N/A time=00:14:47.26 bitrate=N/A speed=19.3x    frame=21532 fps=464 q=-0.0 size=N/A time=00:14:58.06 bitrate=N/A speed=19.3x    frame=21784 fps=464 q=-0.0 size=N/A time=00:15:08.57 bitrate=N/A speed=19.4x    frame=22051 fps=465 q=-0.0 size=N/A time=00:15:19.71 bitrate=N/A speed=19.4x    frame=22313 fps=465 q=-0.0 size=N/A time=00:15:30.63 bitrate=N/A speed=19.4x    frame=22565 fps=465 q=-0.0 size=N/A time=00:15:41.14 bitrate=N/A speed=19.4x    frame=22778 fps=465 q=-0.0 size=N/A time=00:15:50.03 bitrate=N/A speed=19.4x    frame=22977 fps=464 q=-0.0 size=N/A time=00:15:58.33 bitrate=N/A speed=19.4x    frame=23249 fps=465 q=-0.0 size=N/A time=00:16:09.67 bitrate=N/A speed=19.4x    frame=23500 fps=465 q=-0.0 size=N/A time=00:16:20.14 bitrate=N/A speed=19.4x    frame=23753 fps=465 q=-0.0 size=N/A time=00:16:30.69 bitrate=N/A speed=19.4x    frame=23974 fps=465 q=-0.0 size=N/A time=00:16:39.91 bitrate=N/A speed=19.4x    frame=24187 fps=464 q=-0.0 size=N/A time=00:16:48.79 bitrate=N/A speed=19.4x    frame=24448 fps=465 q=-0.0 size=N/A time=00:16:59.68 bitrate=N/A speed=19.4x    frame=24716 fps=465 q=-0.0 size=N/A time=00:17:10.90 bitrate=N/A speed=19.4x    frame=24976 fps=466 q=-0.0 size=N/A time=00:17:21.70 bitrate=N/A speed=19.4x    frame=25220 fps=466 q=-0.0 size=N/A time=00:17:31.88 bitrate=N/A speed=19.4x    frame=25491 fps=466 q=-0.0 size=N/A time=00:17:43.18 bitrate=N/A speed=19.4x    frame=25751 fps=466 q=-0.0 size=N/A time=00:17:54.03 bitrate=N/A speed=19.5x    frame=26001 fps=467 q=-0.0 size=N/A time=00:18:04.45 bitrate=N/A speed=19.5x    frame=26273 fps=467 q=-0.0 size=N/A time=00:18:15.80 bitrate=N/A speed=19.5x    frame=26510 fps=467 q=-0.0 size=N/A time=00:18:25.68 bitrate=N/A speed=19.5x    frame=26720 fps=466 q=-0.0 size=N/A time=00:18:34.44 bitrate=N/A speed=19.5x    frame=26935 fps=466 q=-0.0 size=N/A time=00:18:43.41 bitrate=N/A speed=19.4x    frame=27211 fps=467 q=-0.0 size=N/A time=00:18:54.92 bitrate=N/A speed=19.5x    frame=27459 fps=467 q=-0.0 size=N/A time=00:19:05.26 bitrate=N/A speed=19.5x    frame=27721 fps=467 q=-0.0 size=N/A time=00:19:16.19 bitrate=N/A speed=19.5x    frame=27981 fps=467 q=-0.0 size=N/A time=00:19:27.04 bitrate=N/A speed=19.5x    frame=28234 fps=468 q=-0.0 size=N/A time=00:19:37.59 bitrate=N/A speed=19.5x    frame=28492 fps=468 q=-0.0 size=N/A time=00:19:48.35 bitrate=N/A speed=19.5x    frame=28766 fps=468 q=-0.0 size=N/A time=00:19:59.78 bitrate=N/A speed=19.5x    frame=29043 fps=469 q=-0.0 size=N/A time=00:20:11.33 bitrate=N/A speed=19.6x    frame=29308 fps=469 q=-0.0 size=N/A time=00:20:22.38 bitrate=N/A speed=19.6x    frame=29564 fps=470 q=-0.0 size=N/A time=00:20:33.06 bitrate=N/A speed=19.6x    frame=29835 fps=470 q=-0.0 size=N/A time=00:20:44.36 bitrate=N/A speed=19.6x    frame=30103 fps=470 q=-0.0 size=N/A time=00:20:55.54 bitrate=N/A speed=19.6x    frame=30338 fps=470 q=-0.0 size=N/A time=00:21:05.34 bitrate=N/A speed=19.6x    frame=30573 fps=470 q=-0.0 size=N/A time=00:21:15.14 bitrate=N/A speed=19.6x    frame=30820 fps=470 q=-0.0 size=N/A time=00:21:25.45 bitrate=N/A speed=19.6x    frame=31084 fps=471 q=-0.0 size=N/A time=00:21:36.46 bitrate=N/A speed=19.6x    frame=31351 fps=471 q=-0.0 size=N/A time=00:21:47.59 bitrate=N/A speed=19.6x    frame=31609 fps=471 q=-0.0 size=N/A time=00:21:58.35 bitrate=N/A speed=19.7x    frame=31887 fps=472 q=-0.0 size=N/A time=00:22:09.95 bitrate=N/A speed=19.7x    frame=32139 fps=472 q=-0.0 size=N/A time=00:22:20.46 bitrate=N/A speed=19.7x    frame=32359 fps=471 q=-0.0 size=N/A time=00:22:29.63 bitrate=N/A speed=19.7x    frame=32579 fps=471 q=-0.0 size=N/A time=00:22:38.81 bitrate=N/A speed=19.6x    frame=32804 fps=471 q=-0.0 size=N/A time=00:22:48.20 bitrate=N/A speed=19.6x    frame=33050 fps=471 q=-0.0 size=N/A time=00:22:58.46 bitrate=N/A speed=19.6x    frame=33289 fps=471 q=-0.0 size=N/A time=00:23:08.42 bitrate=N/A speed=19.6x    [Parsed_psnr_10 @ 000001859b34ef80] PSNR y:47.893595 u:51.296704 v:50.958659 average:48.728621 min:36.919151 max:inf
[out#0/null @ 000001858ec65f00] video:14343KiB audio:261252KiB subtitle:0KiB other streams:0KiB global headers:0KiB muxing overhead: unknown
frame=33380 fps=471 q=-0.0 Lsize=N/A time=00:23:12.22 bitrate=N/A speed=19.6x    
